PathFileType	4	(X/Y/Z)	..\data\2015035\dynamic\2015035_C4_03.trc
DataRate	CameraRate	NumFrames	NumMarkers	Units	OrigDataRate	OrigDataStartFrame	OrigNumFrames
100.000000	100.000000	4	52	mm	100.000000	22	179
Frame#	Time	L_IAS			L_IPS			R_IPS			R_IAS			L_FTC			L_FLE			L_FME			L_FAX			L_TTC			L_FAL			L_TAM			L_FCC			L_FM1			L_FM2			L_FM5			R_FTC			R_FLE			R_FME			R_FAX			R_TTC			R_FAL			R_TAM			R_FCC			R_FM1			R_FM2			R_FM5			CV7			TV10			SXS			SJN			L_SIA			L_SRS			L_SAA			L_SAE			L_HLE			L_HME			L_UOA			L_RSP			L_UHE			L_HM2			L_HM5			R_SIA			R_SRS			R_SAA			R_SAE			R_HLE			R_HME			R_UOA			R_RSP			R_UHE			R_HM2			R_HM5			
		X1	Y1	Z1	X2	Y2	Z2	X3	Y3	Z3	X4	Y4	Z4	X5	Y5	Z5	X6	Y6	Z6	X7	Y7	Z7	X8	Y8	Z8	X9	Y9	Z9	X10	Y10	Z10	X11	Y11	Z11	X12	Y12	Z12	X13	Y13	Z13	X14	Y14	Z14	X15	Y15	Z15	X16	Y16	Z16	X17	Y17	Z17	X18	Y18	Z18	X19	Y19	Z19	X20	Y20	Z20	X21	Y21	Z21	X22	Y22	Z22	X23	Y23	Z23	X24	Y24	Z24	X25	Y25	Z25	X26	Y26	Z26	X27	Y27	Z27	X28	Y28	Z28	X29	Y29	Z29	X30	Y30	Z30	X31	Y31	Z31	X32	Y32	Z32	X33	Y33	Z33	X34	Y34	Z34	X35	Y35	Z35	X36	Y36	Z36	X37	Y37	Z37	X38	Y38	Z38	X39	Y39	Z39	X40	Y40	Z40	X41	Y41	Z41	X42	Y42	Z42	X43	Y43	Z43	X44	Y44	Z44	X45	Y45	Z45	X46	Y46	Z46	X47	Y47	Z47	X48	Y48	Z48	X49	Y49	Z49	X50	Y50	Z50	X51	Y51	Z51	X52	Y52	Z52	

23	0.22	70.15659332275392	962.0354003906252	-356.2738037109376	-128.4530029296875	980.6133422851565	-271.8825683593751	-127.8823165893555	968.224548339844	-187.4130401611328	53.36760711669923	949.9910278320315	-90.4596633911133	-10.21492862701416	895.366882324219	-413.7493286132814	115.3144836425782	467.6177978515626	-373.4128417968751	92.6476287841797	479.451385498047	-237.1459350585938	109.4532012939453	416.7050170898439	-375.2869567871094	167.487060546875	399.1419372558595	-313.8742980957032	81.86595153808595	56.50722503662111	-327.5393981933594	99.71895599365237	75.85386657714845	-233.1539306640626	32.43798065185548	19.81065559387207	-277.8487854003907	227.6392669677735	21.86348342895508	-235.5315704345704	234.6743774414063	33.93651580810548	-296.1282043457032	192.6688079833985	14.90484523773194	-349.2001342773438	-36.15042114257813	854.8638916015627	-45.43803024291993	-37.52153778076173	443.4481506347657	-55.09839248657228	-7.831133842468263	432.6634826660157	-178.9710998535157	-80.29758453369142	421.5453186035157	-57.88983154296876	-37.13796615600587	359.6508178710938	-95.57449340820314	-358.8224487304688	199.6914520263672	-95.2838592529297	-307.9126892089844	173.3230285644532	-173.1290130615235	-400.1555480957032	203.8353881835938	-150.0286560058594	-318.2412414550782	45.0511703491211	-177.1746673583985	-309.5537109375001	44.46772003173829	-122.93798828125	-356.7552490234376	67.6554641723633	-76.72200012207033	-93.68431854248048	1486.011352539063	-247.6398010253907	-154.4763641357422	1196.867797851563	-226.4690246582032	95.85805511474611	1227.782592773438	-243.6119384765626	45.80808258056641	1395.218872070313	-250.2324676513672	-170.4535827636719	1267.541137695313	-346.6510925292969	-136.8307495117188	1414.203369140625	-333.5319519042969	-68.76300048828126	1403.959594726563	-433.7814025878907	-21.67623901367188	1402.467651367188	-444.0568237304689	-61.21539306640626	1094.137817382813	-516.9326782226564	-103.6503219604492	1082.794799804688	-433.4488525390626	-108.6874313354492	1069.234130859375	-488.8567504882814	35.52617263793946	839.9995727539065	-470.9893188476564	-10.70037364959717	837.3472290039065	-533.7941284179689	65.13825988769533	755.6790771484376	-472.459686279297	-19.33101081848145	756.2976684570314	-535.5543212890626	-147.9443054199219	1281.336059570313	-97.48564910888675	-117.3910217285157	1425.720092773438	-137.1441955566407	-33.69504547119141	1416.042358398438	-43.95841598510743	19.32427787780762	1413.146606445313	-41.79429244995118	1.822573900222779	1122.468017578125	63.95545196533205	-57.25851821899415	1108.003051757813	-8.903162956237795	-46.28648757934571	1090.708618164063	53.4678192138672	126.8375625610352	882.572692871094	-0.6764831542968751	86.38037872314455	869.883239746094	64.77853393554689	169.1051483154297	799.4129638671877	-2.136620998382569	93.90894317626955	803.318298339844	72.46988677978517	
24	0.23	81.76219177246095	963.1530761718752	-357.0621948242188	-116.8714141845703	982.0921630859377	-273.0647583007813	-116.7786483764649	969.5058593750002	-188.6910705566407	64.37981414794923	951.4932861328127	-91.13687896728517	0.7444031834602357	896.7068481445315	-414.698211669922	119.4840927124024	467.1270751953126	-374.2229919433594	97.29266357421878	479.5043029785157	-237.9049530029297	112.7955856323242	416.312713623047	-375.8726806640626	171.152084350586	398.1538696289064	-314.9803466796876	81.94483184814455	56.51499176025392	-327.5370178222657	99.89493560791018	75.77945709228517	-233.2047271728516	32.45492935180665	19.82862663269043	-277.8157958984376	227.6641540527344	21.97607612609864	-235.4581298828126	234.7404937744141	33.87683105468751	-296.0541687011719	192.7442932128907	14.97942352294922	-349.2077026367188	-24.13928222656251	856.0131835937502	-46.81399154663087	-13.92445373535157	444.806365966797	-53.95742034912111	16.75287055969239	434.0402221679689	-177.8011016845703	-56.27394104003908	423.3648681640626	-56.81083297729494	-13.35632991790772	361.2227172851563	-94.38954925537111	-337.1736755371094	205.4778137207032	-95.2435760498047	-286.2450256347657	177.918441772461	-172.6393280029297	-378.4158935546876	209.1619873046876	-150.1436614990235	-297.2394714355469	48.95796966552736	-173.6085205078125	-288.7722167968751	48.60080718994142	-119.2508773803711	-336.1824035644532	74.31527709960939	-74.35470581054689	-82.63452148437501	1487.501708984375	-249.4311065673829	-143.2207183837891	1198.235229492188	-228.2455444335938	106.9678649902344	1229.283203125	-243.8329162597657	56.80183792114259	1396.722534179688	-250.8330841064454	-157.999267578125	1268.827270507813	-349.3848266601563	-124.8530197143555	1415.390258789063	-335.6803588867188	-55.83935546875001	1404.95068359375	-435.4489746093751	-8.548553466796877	1403.67236328125	-445.0418701171876	-43.48470687866212	1094.89794921875	-518.3641357421876	-87.36102294921876	1083.141357421875	-435.7450561523439	-91.28518676757814	1069.599243164063	-491.1204528808595	55.05189895629884	841.8296508789065	-471.0136718750001	9.999680519104006	838.8765869140627	-534.7098999023439	85.89914703369142	758.1843261718751	-472.3654785156251	2.435207128524781	757.6987915039064	-536.6246948242189	-138.0817108154297	1282.515869140625	-99.93035125732425	-107.2395935058594	1427.049682617188	-139.0448608398438	-24.40792274475098	1417.502075195313	-45.14807891845704	28.60836791992188	1414.6474609375	-42.45160675048829	10.02236557006836	1123.855712890625	62.92191314697267	-49.47637176513673	1109.885620117188	-9.661525726318361	-38.46552658081055	1092.699462890625	52.66781234741212	131.3815002441407	882.0935058593752	-1.711111545562745	91.53676605224611	870.2183837890627	64.27169036865236	172.1688385009766	798.1445312500002	-3.379041433334351	98.12400054931643	803.571472167969	72.22019195556642	
25	0.24	93.17690277099611	964.2941894531252	-357.8351745605469	-105.43896484375	983.6324462890627	-274.2112426757813	-105.750228881836	970.9402465820315	-189.9380798339844	75.27322387695314	953.1971435546877	-91.77490997314455	11.56742477416992	898.0388793945315	-415.5828857421876	123.3693542480469	466.7203063964845	-374.9026184082032	101.4013824462891	479.5588684082032	-238.5659637451172	115.8523025512696	415.9976806640626	-376.3608093261719	174.4236297607422	397.2498474121095	-315.8879394531251	82.00117492675783	56.52173995971681	-327.5769042968751	100.031723022461	75.71172332763673	-233.2832946777344	32.43280792236329	19.87726020812989	-277.7947692871094	227.6439056396485	22.00731849670411	-235.3935241699219	234.7320709228516	33.7448959350586	-295.9564208984376	192.7835083007813	14.95886707305909	-349.1709899902344	-12.09440422058106	857.4310302734377	-48.08471679687501	9.569359779357912	446.7596130371095	-53.00865173339845	41.09344482421876	436.1278381347657	-176.8309936523438	-32.36089324951173	425.6431274414064	-56.00126266479494	10.57102680206299	363.3445739746094	-93.42506408691408	-314.7982482910157	210.489730834961	-95.51694488525392	-263.6266479492188	181.9906005859375	-172.3952331542969	-355.9548950195313	213.1866149902344	-150.6092376708985	-273.9354553222657	52.4517288208008	-169.8819885253907	-265.6048583984376	52.77011489868165	-115.4049301147461	-313.5921325683594	80.51832580566408	-71.86537933349611	-71.76461029052736	1489.084838867188	-251.0943908691407	-132.1666870117188	1199.6875	-229.9208068847657	117.8412017822266	1230.819091796875	-243.9932250976563	67.61638641357423	1398.2861328125	-251.3145294189454	-145.7418975830078	1270.284301757813	-351.9994506835938	-113.0707168579102	1416.732055664063	-337.6954956054688	-43.09111404418946	1406.095703125	-436.9816894531251	4.398758411407472	1405.037719726563	-445.8706665039064	-25.62948989868165	1095.91015625	-519.6644897460939	-70.94908905029298	1083.637084960938	-437.950408935547	-73.72763824462892	1070.148071289063	-493.2669677734376	74.79116058349611	843.9141845703127	-470.950653076172	31.00927543640137	840.7326660156252	-535.5855102539064	106.8851089477539	760.9533691406251	-472.1827087402345	24.5429916381836	759.4575805664064	-537.7316894531251	-128.385009765625	1283.78125	-102.2747955322266	-97.2704772949219	1428.459838867188	-140.8345336914063	-15.29445171356202	1418.994140625	-46.22614669799805	37.68155670166016	1416.18798828125	-42.98905563354493	17.91958236694336	1125.211303710938	61.85114669799806	-41.80316543579102	1111.73779296875	-10.59548950195313	-30.88966941833497	1094.621948242188	51.70488357543947	136.0230560302735	881.813415527344	-2.615224599838257	96.62418365478518	870.6745605468752	63.76867294311525	175.4469299316407	797.168640136719	-4.390925884246827	102.3334503173828	803.966003417969	71.96031188964845	
26	0.25	104.4154281616211	965.5003051757815	-358.6227111816407	-94.14017486572267	985.2200317382815	-275.3047180175782	-94.77024841308595	972.5111083984377	-191.1273345947266	86.09170532226564	955.0967407226565	-92.41491699218751	22.27845191955567	899.3626708984377	-416.4063110351564	127.0242614746094	466.4178161621095	-375.4408874511719	105.0220184326172	479.6290588378907	-239.1106567382813	118.6859970092774	415.778289794922	-376.7425231933594	177.3541107177735	396.4447631835939	-316.5677185058594	82.0494842529297	56.54016113281251	-327.6492004394532	100.1468734741211	75.66103363037111	-233.3776855468751	32.39281082153321	19.96387672424317	-277.7865295410157	227.5922851562501	21.96095085144043	-235.3385467529297	234.6809539794922	33.54852294921876	-295.8520812988282	192.7934722900391	14.86026763916016	-349.1127929687501	0.04531466588377953	859.0797119140627	-49.20820999145509	32.87535095214844	449.2672119140626	-52.25626373291017	65.12681579589845	438.8599548339845	-176.0492706298828	-8.650184631347658	428.331512451172	-55.4498863220215	34.57382965087891	365.9748535156251	-92.65501403808595	-291.7403869628907	214.5811767578126	-96.03552246093753	-240.1139221191407	185.4143981933594	-172.3487396240235	-332.8324279785157	215.8612213134766	-151.3455505371094	-248.5662536621094	55.40513229370119	-166.1482696533203	-240.3043823242188	56.7888641357422	-111.5804824829102	-289.1624450683594	86.01578521728517	-69.36260986328126	-61.06959533691408	1490.742797851563	-252.6217346191407	-121.2833786010742	1201.203247070313	-231.490463256836	128.5042419433594	1232.392700195313	-244.1188507080079	78.26434326171876	1399.90966796875	-251.6954040527344	-133.6893005371094	1271.889038085938	-354.4546508789063	-101.5015563964844	1418.212768554688	-339.5614929199219	-30.55388641357423	1407.397338867188	-438.3718566894532	17.12579345703125	1406.567016601563	-446.5534667968751	-7.705923080444338	1097.189086914063	-520.8221435546876	-54.42774963378908	1084.294555664063	-440.0264892578126	-56.04883956909181	1070.8876953125	-495.2619628906251	94.74309539794923	846.285827636719	-470.8149719238282	52.29613876342775	842.9338989257815	-536.4081420898439	128.0897979736328	764.0084228515626	-471.925506591797	46.9627914428711	761.5993652343751	-538.8631591796876	-118.8127136230469	1285.138671875	-104.4793853759766	-87.44955444335939	1429.93994140625	-142.5039672851563	-6.306977748870851	1420.52880859375	-47.20430374145509	46.59286117553712	1417.772583007813	-43.43024063110352	25.50808334350587	1126.54638671875	60.73833465576173	-34.22839736938477	1113.57958984375	-11.72216510772705	-23.56222724914551	1096.486328125	50.5660858154297	140.7961578369141	881.7312622070315	-3.374708652496339	101.6275100708008	871.249694824219	63.25608062744142	178.9907836914063	796.490905761719	-5.147702217102052	106.5197906494141	804.4985351562502	71.66676330566408	
